<mxfile host="Electron" agent="Mozilla/5.0 (Windows NT 10.0; Win64; x64) AppleWebKit/537.36 (KHTML, like Gecko) draw.io/28.2.5 Chrome/138.0.7204.251 Electron/37.6.1 Safari/537.36" version="28.2.5">
  <diagram name="Page-1" id="OchrTeS6_LRVHXbLdTXT">
    <mxGraphModel dx="1426" dy="841" grid="1" gridSize="10" guides="1" tooltips="1" connect="1" arrows="1" fold="1" page="1" pageScale="1" pageWidth="850" pageHeight="1100" math="0" shadow="0">
      <root>
        <mxCell id="0" />
        <mxCell id="1" parent="0" />
        <mxCell id="bN_uJbtGvR0_EUDDC_ub-1" value="&lt;font style=&quot;font-size: 25px;&quot;&gt;Integration Model&amp;nbsp;&lt;/font&gt;&lt;font style=&quot;font-size: 18px;&quot;&gt; (how tables are realted)&lt;/font&gt;" style="text;html=1;align=center;verticalAlign=middle;whiteSpace=wrap;rounded=0;" parent="1" vertex="1">
          <mxGeometry x="10" y="10" width="400" height="30" as="geometry" />
        </mxCell>
        <mxCell id="bN_uJbtGvR0_EUDDC_ub-2" value="&lt;span style=&quot;background-color: transparent; color: light-dark(rgb(255, 255, 255), rgb(18, 18, 18));&quot;&gt;crm_cust_info&lt;/span&gt;" style="swimlane;fontStyle=0;childLayout=stackLayout;horizontal=1;startSize=30;horizontalStack=0;resizeParent=1;resizeParentMax=0;resizeLast=0;collapsible=1;marginBottom=0;whiteSpace=wrap;html=1;rounded=1;fillColor=#66B2FF;fontColor=#ffffff;strokeColor=#006EAF;fontSize=26;align=center;" parent="1" vertex="1">
          <mxGeometry x="440" y="340" width="220" height="110" as="geometry" />
        </mxCell>
        <mxCell id="bN_uJbtGvR0_EUDDC_ub-3" value="cst_id" style="text;strokeColor=none;fillColor=none;align=left;verticalAlign=middle;spacingLeft=4;spacingRight=4;overflow=hidden;points=[[0,0.5],[1,0.5]];portConstraint=eastwest;rotatable=0;whiteSpace=wrap;html=1;fontSize=26;" parent="bN_uJbtGvR0_EUDDC_ub-2" vertex="1">
          <mxGeometry y="30" width="220" height="40" as="geometry" />
        </mxCell>
        <mxCell id="bN_uJbtGvR0_EUDDC_ub-20" value="cst_key" style="text;strokeColor=none;fillColor=none;align=left;verticalAlign=middle;spacingLeft=4;spacingRight=4;overflow=hidden;points=[[0,0.5],[1,0.5]];portConstraint=eastwest;rotatable=0;whiteSpace=wrap;html=1;fontSize=26;" parent="bN_uJbtGvR0_EUDDC_ub-2" vertex="1">
          <mxGeometry y="70" width="220" height="40" as="geometry" />
        </mxCell>
        <mxCell id="bN_uJbtGvR0_EUDDC_ub-6" value="&lt;font style=&quot;font-size: 20px;&quot;&gt;customer information&lt;/font&gt;" style="text;html=1;align=center;verticalAlign=middle;whiteSpace=wrap;rounded=0;" parent="1" vertex="1">
          <mxGeometry x="460" y="310" width="190" height="30" as="geometry" />
        </mxCell>
        <mxCell id="bN_uJbtGvR0_EUDDC_ub-8" value="&lt;span style=&quot;background-color: transparent; color: light-dark(rgb(255, 255, 255), rgb(18, 18, 18));&quot;&gt;crm_prd_info&lt;/span&gt;" style="swimlane;fontStyle=0;childLayout=stackLayout;horizontal=1;startSize=30;horizontalStack=0;resizeParent=1;resizeParentMax=0;resizeLast=0;collapsible=1;marginBottom=0;whiteSpace=wrap;html=1;rounded=1;fillColor=#66B2FF;fontColor=#ffffff;strokeColor=#006EAF;fontSize=26;align=center;" parent="1" vertex="1">
          <mxGeometry x="440" y="150" width="220" height="70" as="geometry" />
        </mxCell>
        <mxCell id="bN_uJbtGvR0_EUDDC_ub-9" value="cat_id" style="text;strokeColor=none;fillColor=none;align=left;verticalAlign=middle;spacingLeft=4;spacingRight=4;overflow=hidden;points=[[0,0.5],[1,0.5]];portConstraint=eastwest;rotatable=0;whiteSpace=wrap;html=1;fontSize=26;" parent="bN_uJbtGvR0_EUDDC_ub-8" vertex="1">
          <mxGeometry y="30" width="220" height="40" as="geometry" />
        </mxCell>
        <mxCell id="bN_uJbtGvR0_EUDDC_ub-10" value="&lt;font style=&quot;font-size: 20px;&quot;&gt;Current &amp;amp; History Product Info&lt;/font&gt;" style="text;html=1;align=center;verticalAlign=middle;whiteSpace=wrap;rounded=0;" parent="1" vertex="1">
          <mxGeometry x="400" y="120" width="280" height="30" as="geometry" />
        </mxCell>
        <mxCell id="bN_uJbtGvR0_EUDDC_ub-11" value="&lt;span style=&quot;background-color: transparent; color: light-dark(rgb(255, 255, 255), rgb(18, 18, 18));&quot;&gt;crm_prd_info&lt;/span&gt;" style="swimlane;fontStyle=0;childLayout=stackLayout;horizontal=1;startSize=30;horizontalStack=0;resizeParent=1;resizeParentMax=0;resizeLast=0;collapsible=1;marginBottom=0;whiteSpace=wrap;html=1;rounded=1;fillColor=#66B2FF;fontColor=#ffffff;strokeColor=#006EAF;fontSize=26;align=center;" parent="1" vertex="1">
          <mxGeometry x="70" y="250" width="220" height="110" as="geometry" />
        </mxCell>
        <mxCell id="bN_uJbtGvR0_EUDDC_ub-12" value="prd_key" style="text;strokeColor=none;fillColor=none;align=left;verticalAlign=middle;spacingLeft=4;spacingRight=4;overflow=hidden;points=[[0,0.5],[1,0.5]];portConstraint=eastwest;rotatable=0;whiteSpace=wrap;html=1;fontSize=26;" parent="bN_uJbtGvR0_EUDDC_ub-11" vertex="1">
          <mxGeometry y="30" width="220" height="40" as="geometry" />
        </mxCell>
        <mxCell id="bN_uJbtGvR0_EUDDC_ub-14" value="cst_id" style="text;strokeColor=none;fillColor=none;align=left;verticalAlign=middle;spacingLeft=4;spacingRight=4;overflow=hidden;points=[[0,0.5],[1,0.5]];portConstraint=eastwest;rotatable=0;whiteSpace=wrap;html=1;fontSize=26;" parent="bN_uJbtGvR0_EUDDC_ub-11" vertex="1">
          <mxGeometry y="70" width="220" height="40" as="geometry" />
        </mxCell>
        <mxCell id="bN_uJbtGvR0_EUDDC_ub-13" value="&lt;font style=&quot;font-size: 20px;&quot;&gt;Transactional Records about Sales &amp;amp; Orders&lt;/font&gt;" style="text;html=1;align=center;verticalAlign=middle;whiteSpace=wrap;rounded=0;" parent="1" vertex="1">
          <mxGeometry x="30" y="210" width="280" height="30" as="geometry" />
        </mxCell>
        <mxCell id="bN_uJbtGvR0_EUDDC_ub-15" style="edgeStyle=orthogonalEdgeStyle;rounded=0;orthogonalLoop=1;jettySize=auto;html=1;entryX=0;entryY=0.5;entryDx=0;entryDy=0;" parent="1" source="bN_uJbtGvR0_EUDDC_ub-14" target="bN_uJbtGvR0_EUDDC_ub-3" edge="1">
          <mxGeometry relative="1" as="geometry" />
        </mxCell>
        <mxCell id="bN_uJbtGvR0_EUDDC_ub-16" style="edgeStyle=orthogonalEdgeStyle;rounded=0;orthogonalLoop=1;jettySize=auto;html=1;entryX=0;entryY=0.5;entryDx=0;entryDy=0;" parent="1" source="bN_uJbtGvR0_EUDDC_ub-12" target="bN_uJbtGvR0_EUDDC_ub-9" edge="1">
          <mxGeometry relative="1" as="geometry" />
        </mxCell>
        <mxCell id="bN_uJbtGvR0_EUDDC_ub-17" value="&lt;span style=&quot;background-color: transparent; color: light-dark(rgb(255, 255, 255), rgb(18, 18, 18));&quot;&gt;erp_cust_az12&lt;/span&gt;" style="swimlane;fontStyle=0;childLayout=stackLayout;horizontal=1;startSize=30;horizontalStack=0;resizeParent=1;resizeParentMax=0;resizeLast=0;collapsible=1;marginBottom=0;whiteSpace=wrap;html=1;rounded=1;fillColor=#fad7ac;strokeColor=#b46504;fontSize=26;align=center;" parent="1" vertex="1">
          <mxGeometry x="1050" y="300" width="220" height="70" as="geometry" />
        </mxCell>
        <mxCell id="bN_uJbtGvR0_EUDDC_ub-18" value="cid" style="text;strokeColor=none;fillColor=none;align=left;verticalAlign=middle;spacingLeft=4;spacingRight=4;overflow=hidden;points=[[0,0.5],[1,0.5]];portConstraint=eastwest;rotatable=0;whiteSpace=wrap;html=1;fontSize=26;" parent="bN_uJbtGvR0_EUDDC_ub-17" vertex="1">
          <mxGeometry y="30" width="220" height="40" as="geometry" />
        </mxCell>
        <mxCell id="bN_uJbtGvR0_EUDDC_ub-19" value="&lt;font style=&quot;font-size: 20px;&quot;&gt;Extra Customer Information (Birthdate)&lt;/font&gt;" style="text;html=1;align=center;verticalAlign=middle;whiteSpace=wrap;rounded=0;" parent="1" vertex="1">
          <mxGeometry x="1000" y="270" width="360" height="30" as="geometry" />
        </mxCell>
        <mxCell id="bN_uJbtGvR0_EUDDC_ub-21" style="edgeStyle=orthogonalEdgeStyle;rounded=0;orthogonalLoop=1;jettySize=auto;html=1;entryX=0;entryY=0.5;entryDx=0;entryDy=0;" parent="1" source="bN_uJbtGvR0_EUDDC_ub-20" target="bN_uJbtGvR0_EUDDC_ub-18" edge="1">
          <mxGeometry relative="1" as="geometry" />
        </mxCell>
        <mxCell id="bN_uJbtGvR0_EUDDC_ub-22" value="&lt;span style=&quot;background-color: transparent; color: light-dark(rgb(255, 255, 255), rgb(18, 18, 18));&quot;&gt;erp_loc_a101&lt;/span&gt;" style="swimlane;fontStyle=0;childLayout=stackLayout;horizontal=1;startSize=30;horizontalStack=0;resizeParent=1;resizeParentMax=0;resizeLast=0;collapsible=1;marginBottom=0;whiteSpace=wrap;html=1;rounded=1;fillColor=#fad7ac;strokeColor=#b46504;fontSize=26;align=center;" parent="1" vertex="1">
          <mxGeometry x="1055" y="450" width="220" height="70" as="geometry" />
        </mxCell>
        <mxCell id="bN_uJbtGvR0_EUDDC_ub-23" value="cid" style="text;strokeColor=none;fillColor=none;align=left;verticalAlign=middle;spacingLeft=4;spacingRight=4;overflow=hidden;points=[[0,0.5],[1,0.5]];portConstraint=eastwest;rotatable=0;whiteSpace=wrap;html=1;fontSize=26;" parent="bN_uJbtGvR0_EUDDC_ub-22" vertex="1">
          <mxGeometry y="30" width="220" height="40" as="geometry" />
        </mxCell>
        <mxCell id="bN_uJbtGvR0_EUDDC_ub-24" value="&lt;font style=&quot;font-size: 20px;&quot;&gt;Location Of Customers (Country)&lt;/font&gt;" style="text;html=1;align=center;verticalAlign=middle;whiteSpace=wrap;rounded=0;" parent="1" vertex="1">
          <mxGeometry x="980" y="420" width="360" height="30" as="geometry" />
        </mxCell>
        <mxCell id="bN_uJbtGvR0_EUDDC_ub-26" value="&lt;font style=&quot;color: rgb(0, 0, 0);&quot;&gt;erp_px_cat_g1v2&lt;/font&gt;" style="swimlane;fontStyle=0;childLayout=stackLayout;horizontal=1;startSize=30;horizontalStack=0;resizeParent=1;resizeParentMax=0;resizeLast=0;collapsible=1;marginBottom=0;whiteSpace=wrap;html=1;rounded=1;fillColor=#fad7ac;strokeColor=#b46504;fontSize=26;align=center;" parent="1" vertex="1">
          <mxGeometry x="1055" y="165" width="220" height="70" as="geometry" />
        </mxCell>
        <mxCell id="bN_uJbtGvR0_EUDDC_ub-27" value="id" style="text;strokeColor=none;fillColor=none;align=left;verticalAlign=middle;spacingLeft=4;spacingRight=4;overflow=hidden;points=[[0,0.5],[1,0.5]];portConstraint=eastwest;rotatable=0;whiteSpace=wrap;html=1;fontSize=26;" parent="bN_uJbtGvR0_EUDDC_ub-26" vertex="1">
          <mxGeometry y="30" width="220" height="40" as="geometry" />
        </mxCell>
        <mxCell id="bN_uJbtGvR0_EUDDC_ub-28" value="&lt;span style=&quot;font-size: 20px;&quot;&gt;Product Category Info&amp;nbsp;&lt;/span&gt;" style="text;html=1;align=center;verticalAlign=middle;whiteSpace=wrap;rounded=0;" parent="1" vertex="1">
          <mxGeometry x="985" y="140" width="360" height="30" as="geometry" />
        </mxCell>
        <mxCell id="bN_uJbtGvR0_EUDDC_ub-29" style="edgeStyle=orthogonalEdgeStyle;rounded=0;orthogonalLoop=1;jettySize=auto;html=1;entryX=1;entryY=0.5;entryDx=0;entryDy=0;" parent="1" source="bN_uJbtGvR0_EUDDC_ub-27" target="bN_uJbtGvR0_EUDDC_ub-9" edge="1">
          <mxGeometry relative="1" as="geometry" />
        </mxCell>
        <mxCell id="bN_uJbtGvR0_EUDDC_ub-31" value="&lt;font style=&quot;font-size: 30px; color: rgb(0, 0, 0);&quot;&gt;&lt;b&gt;CRM&lt;/b&gt;&lt;/font&gt;" style="rounded=1;whiteSpace=wrap;html=1;fillColor=#66B2FF;fontColor=#ffffff;strokeColor=#006EAF;" parent="1" vertex="1">
          <mxGeometry x="260" y="70" width="150" height="60" as="geometry" />
        </mxCell>
        <mxCell id="bN_uJbtGvR0_EUDDC_ub-35" value="&lt;font style=&quot;font-size: 30px; color: rgb(0, 0, 0);&quot;&gt;&lt;b&gt;ERP&lt;/b&gt;&lt;/font&gt;" style="rounded=1;whiteSpace=wrap;html=1;fillColor=#fad7ac;strokeColor=#b46504;" parent="1" vertex="1">
          <mxGeometry x="1070" y="70" width="150" height="60" as="geometry" />
        </mxCell>
        <mxCell id="bN_uJbtGvR0_EUDDC_ub-36" value="" style="rounded=1;whiteSpace=wrap;html=1;fillColor=none;dashed=1;" parent="1" vertex="1">
          <mxGeometry x="840" y="110" width="530" height="450" as="geometry" />
        </mxCell>
        <mxCell id="_EiGSTVvqYVk6iuPzEWj-1" value="&lt;font style=&quot;font-size: 15px;&quot;&gt;Product&lt;/font&gt;" style="text;html=1;strokeColor=#996185;fillColor=#e6d0de;align=center;verticalAlign=middle;whiteSpace=wrap;overflow=hidden;gradientColor=#d5739d;" vertex="1" parent="1">
          <mxGeometry x="450" y="215" width="200" height="20" as="geometry" />
        </mxCell>
        <mxCell id="_EiGSTVvqYVk6iuPzEWj-2" value="&lt;font style=&quot;font-size: 15px;&quot;&gt;Product&lt;/font&gt;" style="text;html=1;strokeColor=#996185;fillColor=#e6d0de;align=center;verticalAlign=middle;whiteSpace=wrap;overflow=hidden;gradientColor=#d5739d;" vertex="1" parent="1">
          <mxGeometry x="1060" y="235" width="220" height="20" as="geometry" />
        </mxCell>
        <mxCell id="_EiGSTVvqYVk6iuPzEWj-3" value="&lt;font style=&quot;font-size: 15px;&quot;&gt;Customer&lt;/font&gt;" style="text;html=1;strokeColor=#82b366;fillColor=#d5e8d4;align=center;verticalAlign=middle;whiteSpace=wrap;overflow=hidden;gradientColor=#97d077;" vertex="1" parent="1">
          <mxGeometry x="440" y="450" width="220" height="20" as="geometry" />
        </mxCell>
        <mxCell id="_EiGSTVvqYVk6iuPzEWj-4" value="&lt;font style=&quot;font-size: 15px;&quot;&gt;Customer&lt;/font&gt;" style="text;html=1;strokeColor=#82b366;fillColor=#d5e8d4;align=center;verticalAlign=middle;whiteSpace=wrap;overflow=hidden;gradientColor=#97d077;" vertex="1" parent="1">
          <mxGeometry x="1050" y="370" width="220" height="20" as="geometry" />
        </mxCell>
        <mxCell id="_EiGSTVvqYVk6iuPzEWj-5" value="&lt;font style=&quot;font-size: 15px;&quot;&gt;Customer&lt;/font&gt;" style="text;html=1;strokeColor=#82b366;fillColor=#d5e8d4;align=center;verticalAlign=middle;whiteSpace=wrap;overflow=hidden;gradientColor=#97d077;" vertex="1" parent="1">
          <mxGeometry x="1055" y="520" width="220" height="20" as="geometry" />
        </mxCell>
        <mxCell id="_EiGSTVvqYVk6iuPzEWj-6" value="&lt;font style=&quot;font-size: 15px;&quot;&gt;Sales&lt;/font&gt;" style="text;html=1;strokeColor=#6c8ebf;fillColor=#dae8fc;align=center;verticalAlign=middle;whiteSpace=wrap;overflow=hidden;gradientColor=#7ea6e0;" vertex="1" parent="1">
          <mxGeometry x="60" y="360" width="220" height="20" as="geometry" />
        </mxCell>
        <mxCell id="_EiGSTVvqYVk6iuPzEWj-9" style="edgeStyle=orthogonalEdgeStyle;rounded=0;orthogonalLoop=1;jettySize=auto;html=1;" edge="1" parent="1" source="bN_uJbtGvR0_EUDDC_ub-20" target="bN_uJbtGvR0_EUDDC_ub-23">
          <mxGeometry relative="1" as="geometry" />
        </mxCell>
        <mxCell id="_EiGSTVvqYVk6iuPzEWj-10" value="" style="rounded=1;whiteSpace=wrap;html=1;fillColor=none;dashed=1;" vertex="1" parent="1">
          <mxGeometry x="20" y="120" width="690" height="400" as="geometry" />
        </mxCell>
      </root>
    </mxGraphModel>
  </diagram>
</mxfile>
